<svg version="1" xmlns="http://www.w3.org/2000/svg" width="1006.667" height="533.333" viewBox="0 0 755.000000 400.000000"><path d="M459 58c-.9.6-1 1-.3 1 .6 0 1.5-.5 1.8-1 .8-1.2.4-1.2-1.5 0zM463.7 58.6c-.4.4-.4 1.1-.1 1.5.8 1.4 3.1 1 3.8-.6.5-1.5-2.4-2.2-3.7-.9zM421 60.7c-12.6.4-63.4 4.1-69.6 5-4.6.7-4.7.8-1.9 1.4 2.5.7 2.2.7-1.7.6-2.5-.1-4.4.1-4.2.4.1.3-2.3 1.4-5.4 2.4-3.8 1.3-5 2-3.6 2.3 3.5.5 22.2-2.7 24.6-4.2 2.2-1.4 10-2.9 21.8-4 3.3-.3 4.9-.2 4 .3-2 1.2-12.6 3.3-17.4 3.5-2.9.2-4.5.9-6.4 3.2l-2.6 2.9 4.6.3c2.7.2 6.2-.4 8.5-1.3 7-3.1 13.6-4.7 19-4.7 2.9 0 5.7.2 6.1.6 1.2 1.3-1.8 2.3-10.6 3.5-4.8.7-11.8 1.9-15.7 2.7-3.8.9-9.4 1.8-12.4 2-5.6.6-31.9 7.7-35.5 9.7-1.2.7-2.4 1.6-2.7 2.1-.4.5-1.1.6-1.7.2-.6-.3-1.6 0-2.4.7-.7.7-4 2.4-7.3 3.7-3.3 1.3-8.8 4.1-12.3 6.2-3.4 2.1-6.4 3.8-6.6 3.8-.3 0-3.9 2-8 4.5-4.2 2.5-7.9 4.5-8.1 4.5-.6 0-4 2.7-6.7 5.3-1.2 1.1-4.9 2.4-9.1 3l-7.2 1.2 14 .5c7.7.3 28.2.1 45.5-.4 21.3-.6 39.1-.5 55 .3 12.9.6 26.1 1.1 29.3 1.1 6.1 0 6.5.4 4.1 3.8-.8 1.2-1 2.2-.5 2.2.6 0 1.1-.4 1.1-.9 0-1.9 5.1-6.1 7.4-6.1 6.8 0 10.1-2.7 28.3-23.4 9.8-11 20.9-23.3 24.7-27.3 4.2-4.4 6.6-7.8 6.3-8.6-.4-1-2.7-1.7-6.4-2.1-8.8-.9-27.7-1.3-38.3-.9zm38 9.6c-2.4 2.3-3.5 3.1-2.5 1.7 3.8-4.9 5.8-7 6.4-6.5.3.3-1.5 2.5-3.9 4.8zM358.8 81.2c-1.5 2.3-1.9 2.4-11.8 3.3-6.4.6-6.5.5-4.1-1.2 2.7-2 8.4-3.7 13.8-4.1 3.4-.2 3.5-.1 2.1 2zM491 62.5c-8.1 2.3-12.9 5.6-21 14.2-13.2 14-24.4 29.1-32.3 43.4-5.4 9.7-4.5 9.6 1.4-.2 12.9-21.2 34.5-47 43.9-52.4.8-.5-2.7 3.2-7.7 8.3-11.7 11.7-23.6 26.9-22.8 29.1 1.8 4.4 4.5 13.6 4.5 15.2 0 1.4.6 1.8 2.3 1.5 1.3-.2 2.1-1 2.1-2-.2-1.6 1.1-2.2 2-.8 1 1.7-2.4 4.3-7 5.1-2.7.5-5.8 1.2-6.9 1.5-1.1.4-.6 0 1-.8 1.7-.8 3.6-1.5 4.3-1.6.7 0 .4-.8-.8-2l-2-2-4.3 2.1c-2.3 1.2-5.2 3.1-6.5 4.2-2.2 2.1-2.3 2.1-1.6.2.4-1.1 3.1-5.7 6-10.2 3-4.4 5.4-8.4 5.4-8.7 0-3-7.5 7.2-12 16.4-2.8 5.7-5 8.1-6.4 7.3-.6-.3-.8-.3-.4.2.4.4.1 1.4-.7 2.2-2.3 2.3-1.9 4.4.8 3.9 1.2-.3 5.2-.8 8.9-1.1 3.7-.4 7-1.1 7.3-1.6.4-.5 1.6-.9 2.9-.9 2.9 0 3.9-1 2.6-2.5-.7-.9 1.9-1.6 10.8-2.8 16.4-2.3 18.2-2.4 18.7-1.7.2.3-5.1 1.4-11.8 2.3-6.7 1-12.3 2-12.6 2.2-1.2 1.3 1.3 1.1 11.9-.6 6.3-1 13.8-2.1 16.5-2.5 11.9-1.3 28.5-3.6 50-6.8 12.7-1.9 25.5-3.7 28.5-4.1 7.9-.9 29.7-4.4 31.4-5.1.8-.3 1.7-1.2 2-2 .3-.8 1.2-1.4 2.1-1.4 2 0 1.9-1-.2-2.5-1.1-.8-1.4-1.8-.8-3.1 2.4-5.6-.8-14.9-7-21-10.2-9.9-47.1-18.9-81.5-19.9-12.1-.4-16.7-.2-21 1zm41.8 3.9c5.7.8 10.6 1.6 10.8 1.9.7.6-15.6-.3-31.1-1.8l-13-1.2 11.5-.1c6.3-.1 16.1.5 21.8 1.2zm25.7 4.7c11.9 2.7 26.5 7.7 30.6 10.4 4.5 2.9 7 8 7.1 14.6.1 3.8-.3 5.4-1.5 6-.9.5-1.4 1.6-1.1 2.3 1.4 3.6-1.3 5.2-11.3 6.9-12.4 2.1-22.3 3-20.4 1.8 1.9-1.2-4.5-23.3-10.4-35.9-3.4-7.1-4-9.2-2.7-8.7.9.4 5.3 1.6 9.7 2.6zm-59.3 30c2 .6 4.9 2.2 6.5 3.4 2.6 2.1 2.8 2.8 2.8 9.2v6.9l8.5-1.3c4.7-.7 15.9-2.5 24.9-3.9 10.1-1.6 16.7-2.2 17.2-1.7.9.9-4 1.7-41.5 6.9-5.9.9-11.6 1.8-12.5 2.2-1.3.5-1.4.3-.3-1 .9-1.2 1-2.3.2-4.3-.9-2.3-1.5-2.7-3.8-2.2-1.5.3-8.9 1.1-16.4 1.8-7.6.6-13.8 1.5-13.8 1.9 0 .4 2.1 1.2 4.8 1.7l4.7 1-4.8.8c-5.3.8-9.7-.5-9.7-2.9 0-.8-.5-1.6-1.2-1.8-3-1 2.4-9.8 9.6-15.7 4.1-3.2 4.2-3.2 12.6-2.7 4.7.2 10.1 1 12.2 1.7zm59.3 8.9c-.5.8-1.1.8-1.7.2-.6-.6-.7-1.6-.3-2.2.5-.8 1.1-.8 1.7-.2.6.6.7 1.6.3 2.2zm-4.5 0c0 .6-2.9 1-6.7.9-4.7 0-6.2-.3-4.8-.9 2.8-1.2 11.5-1.2 11.5 0zm-93 3c0 .5-.4 1-1 1-.5 0-1-.5-1-1 0-.6.5-1 1-1 .6 0 1 .4 1 1zm33 12.4c0 .2-1.6.6-3.5.8-1.9.2-3.5 0-3.5-.4s1.6-.8 3.5-.8 3.5.2 3.5.4z"/><path d="M553.6 71.7c-.2.3 1.2 3.9 3.1 8 1.9 4.2 5.2 12.8 7.3 19.2l3.9 11.6 7.3-.3c9.7-.3 17.2-2.3 17.6-4.6.3-1.5-.1-1.7-3-1.1-3.3.7-3.3.7-1.5-1.3 1.1-1.2 1.4-2.2.8-2.6-.6-.4-.8-1.3-.4-2.1.3-.8 0-1.5-.6-1.5s-1.1-1.6-1.1-3.5c0-2.3-.7-4.1-2.1-5.3-1.1-.9-2.5-2.7-3-4-.5-1.2-1.5-2.2-2.4-2.2-.8 0-1.5-.4-1.5-.9 0-1-13.6-6.1-16.2-6.1-1 0-1.8-.6-1.8-1.4 0-1.2-5.4-2.8-6.4-1.9zM249.5 110.8c-1.6 1.1-3.7 2.7-4.5 3.7-1.1 1.4 5.7-2.6 8.9-5.2 1.4-1.1-1.9 0-4.4 1.5zM237.4 119.6c-1.8 1.4-1.8 1.5.4.4 1.2-.6 2.2-1.3 2.2-1.5 0-.8-.5-.6-2.6 1.1zM231.5 124c-1.4.6-.4.9 3.7.9 3.1.1 6-.4 6.3-.9.8-1.2-7.1-1.2-10 0zM570.7 136.7c-1.1 1-.8 2.3.6 2.3.6-.1 2.6-.7 4.2-1.5l3-1.3-3.6-.1c-2-.1-3.9.2-4.2.6zM573.8 141.7c-4.4.5-4.8 1.4-1.3 3.3 3.1 1.7 10 .3 10-2 0-1.6-2.5-2-8.7-1.3zM561.7 142.7c-1.2 1.1.4 2.3 3.3 2.3 1.6 0 3.2-.5 3.6-1.2.5-.7.1-.9-1.3-.6-1.1.3-2.7.2-3.5-.3-.8-.5-1.8-.6-2.1-.2zM663.2 148.1c-9.5 4.7-19.5 21.5-24.6 41.3-1.3 4.9-4.3 25-7.1 47.3-1 7.7-2.1 8.7-9.2 8.4-3.4-.1-8.9.3-12.3.9-5.8 1.1-6.4 1-8.2-.9-2.6-2.8-8.1-5.5-15.3-7.3-8.6-2.3-13.8-2.9-15.5-1.8-1.2.8-1 1 .9 1 2.5 0 21.6 5.4 25.6 7.2 2.6 1.2 3.1 2.3 1.6 3.3-.5.3-6.9 1.4-14.3 2.5-7.3 1.2-25.7 4.1-40.8 6.5-15.1 2.4-35.1 5.4-44.5 6.5-22.2 2.7-38.9 4.8-50 6.5-4.9.7-14.6 2.1-21.5 3-6.9.9-19.2 3.2-27.4 5.1-8.2 1.9-15.1 3.2-15.4 2.9-.3-.3 0-2.6.7-5.3.6-2.6 1.3-5.4 1.4-6.2.1-.8.5-1.7.9-2 .4-.3 1.5-6.4 2.3-13.5 4.3-34.1-4.4-60.3-24.8-74.9-13.8-9.8-28.5-11.2-43.2-4.3-6 2.9-9.5 5.5-15.2 11.2-4 4.1-7.3 8.1-7.3 8.9 0 .7-.7 1.9-1.5 2.6-2.2 1.8-12.1 20.7-14.6 27.6-5.3 15.3-8 47.5-4.4 54.4 1.4 2.6 1.4 2.9 0 2.4-1.1-.5-1.5.1-1.5 2.4 0 1.7-.5 5.3-1.2 8-1 4.7-1.3 5.1-4.7 5.6-2 .3-28.6.9-59.1 1.2l-55.5.6-2.4-2.6c-1.8-1.9-2.1-2.6-1-2.9 3.5-1.1 21.3-4.8 29.4-6.3 10.8-1.9 23.2-5.7 29.9-9.1 10.2-5.2 22.1-19.9 29.2-36.1 3.9-9 4.1-10.3 1.4-12.7-3.2-2.9-9.5-3.5-20.5-2-30.2 4.4-39 5.7-39.4 6-1.2 1.3 25.2-1 29.9-2.5 3-1 8.4-2.1 12-2.4l6.5-.6-8 2c-4.4 1.1-9.3 2.4-11 2.8-3.1.8-4.4 2.5-10.5 13.3-4.9 8.6-14 18.2-20.2 21.3-4.7 2.3-6.3 2.6-16.2 2.5-6.1 0-12-.4-13.1-.8-1.4-.6-3.3.1-6.5 2.1-8.5 5.4-25.2 9-48 10.3-23.8 1.3-52.7-4.1-64.4-12-3.1-2.1-3.6-2.2-3.6-.7 0 .9-1.6 4.3-3.6 7.5-2.9 4.8-3.4 6.1-2.3 6.8.8.5 1.9.9 2.5.9 1.5 0 10.3 4 8.9 4-.5 0-3.9-.7-7.4-1.5-3.5-.9-6.6-1.4-6.8-1.1-1 1 2.4 4.7 5.2 5.6 13.6 4.3 74.8 11 101.4 11 9.9 0 14 .3 13.6 1.1-1 1.5 10.1 1 14.1-.6 3.9-1.6 70.4-3.1 70.4-1.7 0 .5 3 1.3 6.8 1.7 8.5.8 43.6 5.3 48.2 6.1 1.9.3 8.5 2.3 14.5 4.4 12.8 4.3 23.6 5.7 31 4 7.5-1.8 17.7-5.5 24.5-9 6.2-3.1 18.2-14.1 19.4-17.6.9-2.6 4.6-7.2 4.6-5.7 0 .6-.6 1.8-1.3 2.5-.7.7-1.6 2.3-1.9 3.4-.5 2.1-.3 2.1 5.6-.8 3.3-1.7 7.7-3.9 9.6-4.8 2-1 7.5-2.3 12.3-3 4.8-.6 8.5-1.5 8.3-1.9-.2-.3 3.7-.7 8.8-.8 5-.1 12.7-.9 17.1-1.8 4.4-.9 10.3-2.1 13-2.6 14.4-2.8 19.7-4.2 18.4-5-1.1-.7-1.1-.9.2-.9.8 0 1.9.4 2.5.9.5.6 2.8.7 5.2.4 2.7-.4 3.9-.9 3.1-1.4-1.9-1.1 3.1-2.2 8-1.7 2.2.2 3.7-.1 3.4-.5-.3-.5 1.5-.8 4-.6 2.5.2 4.3.1 4-.4-.2-.4 1.6-.7 4-.7 2.5 0 5.9-.3 7.7-.7 2.4-.4 3.1-.3 2.6.5s.2 1 2.1.7c2.6-.4 6.1-.7 23.8-2.1 3.3-.3 8.5-1 11.5-1.5 18.8-3.5 45.7-4.8 59.3-2.9 5 .7 10 1.7 10.9 2.1 1 .6 1.8.5 2-.2.2-.6 2.8.5 5.8 2.5l5.5 3.6h21c20 0 21.2-.1 26-2.4 2.8-1.3 6.7-4 8.8-6.1 5.1-5.2 9.8-14.8 9-18.5-.3-1.6.1-4.1.9-5.8 1.1-2.1 1.5-6 1.3-14.3-.2-12.8-1.5-20.8-5-31-1.2-3.8-1.9-6.9-1.5-6.9 2.1 0 6.1 11.2 7.8 22l1.9 11.5.7-9c.8-9.1-.5-22.8-2.3-26.2-.5-1-1.7-4.1-2.7-6.8-4-12-5.2-14.3-8.9-18.3-2.7-3-4.4-4.1-5.7-3.6-1.2.4-1.8 0-1.8-1.1 0-2-5.7-4.5-10.2-4.5-1.8 0-5.2 1-7.6 2.1zm5.7 10.9c.9-1.3 1.2-1.2 2.4.4.8 1 2 1.7 2.8 1.4 2.4-.9 6.6 2 7.7 5.2 1.3 3.7 1 3.7-3.4.3-6.7-5-16.3-4.2-23.3 2.1l-2.4 2.1 1.1-2.1c.6-1.2 2.3-3.2 3.6-4.5 1.4-1.3 2.6-3.1 2.6-3.9 0-1 .3-1.1 1.1-.3 1.5 1.5 3.9.5 3.9-1.5 0-1.3.3-1.2 1.5.4 1.3 1.6 1.6 1.7 2.4.4zm7.1 8c3.9 2 12 11 12 13.4 0 2-3 5.6-4.8 5.6-1 0-2.2-.8-2.8-1.8-1.2-1.9-.7-9.2.7-9.2 1.6 0 3.1 4.2 2.5 7.1-.7 3.8.7 3.7 2.1-.1 1-2.5.8-3.4-1-5.7-3.9-5-5-5.5-6.3-2.5-1.2 2.6-1.2 2.6-.7-.9.5-3.4.3-3.7-3.5-5.2-8.7-3.5-15.5-.1-20.6 10.1-2.7 5.3-2.7 5.4-.9 7.9 2.8 4 3.1 4.5 5.4 9.8 2.5 5.7 2.8 7.4 1.9 10.1-.6 1.6-1 1.3-2.5-1.9-.9-2-3.2-4.6-5-5.7-4.1-2.5-4.5-2.5-4.5.1 0 1.4 1 2.4 3 3.2 1.7.6 3 1.7 3 2.5 0 1-.5 1-2.2-.2-1.2-.9-2.7-1.6-3.2-1.6-1 0-.2 16.2.9 18 .5.8 1.4.5 3.2-1.1 2-2 2.5-2.1 3.3-.9 1.3 2.1 2.8.3 3.3-4l.3-3.5.8 3.2c.9 3.7 2.6 4.4 2.6 1.2 0-1.8.3-1.9 1.5-.9 1.8 1.5 3.5.5 3.5-2.1 0-1 .5-1.9 1-1.9.6 0 1 .9 1 2 0 2.5 2.5 2.6 3.9.2 1-1.7.9.7-.5 7.5-.4 2.2 1.1 4.2 1.8 2.2.2-.6 2 .1 4.1 1.6 2.1 1.4 4.3 2.3 4.8 2 .5-.4.9-.1.9.4 0 .6.5 1.1 1.1 1.1 1.2 0 7.8 7 7.9 8.2 0 1.6-1.4.7-4.1-2.5l-2.8-3.2.9 3.5c1.2 4.4 1.3 8 .1 8-.5 0-1.1-1.2-1.4-2.8-.7-3.3-12.2-15.2-14.8-15.2-2.2 0-2.2.1 1.7 14 1.2 4.7 2.5 9.7 2.8 11.1.6 2.5.8 2.6 4.2 1.9 5.1-1.2 6-2.3 4.5-5.6-1.4-3.2-.7-4.4.9-1.5 1.4 2.7 2.7 2.7 3.5 0 .4-1.1.9-1.8 1.2-1.6 1.4 1.5-5.4 9.9-10.2 12.5-1.9 1.1-1.9 1.1.5 1.3 2.5.1 2.4.1-.5 1.4-1.6.8-4.1 1.4-5.4 1.5-3.5 0-11.5-4-10.3-5.2.6-.6-.4-2.2-2.8-4.5-2.2-1.9-5.3-5.9-6.9-8.8-3.4-6-4.1-9.4-1.2-5.6l1.9 2.4 1.1-2.1c2.2-4.2.8-13.2-2.1-13.2-2 0-4.7 3.1-4.1 4.8.4.9.2 1.3-.4.9-1-.7-2.9-9.1-3.6-16.2-.7-7.2 1.1-22.9 3.3-28.9 5.2-13.8 15.8-19.8 26-14.6zm-10.2 6.1c2.3 3.9 2.4 8.4.5 15.2-.8 3-1.7.9-1.4-3.1.1-2.1-.7-5.8-1.8-8.6-1.2-2.6-2.1-5.4-2.1-6.2 0-2.7 2.5-1.3 4.8 2.7zm-14.3 0c-1 1.5-2.5 1-1.9-.6.4-.8 1-1.2 1.5-.9.5.3.7 1 .4 1.5zm8.2 3.1c-.3.8-.6.5-.6-.6-.1-1.1.2-1.7.5-1.3.3.3.4 1.2.1 1.9zm-300.5 13.9c13 9.3 23.5 28.2 25.8 46.6.8 6.4.7 19-.3 23.3-2.3 10.2-3.1 13-3.9 13-1.1 0-.9-1.9.7-6.5.8-2.2 1.7-9 2.1-15 .5-9.2.2-12.3-1.5-18.8-1.1-4.3-2.7-9.2-3.5-11-.8-1.7-1.7-4.2-2.1-5.4-1.7-6.1-17.3-25.3-20.5-25.3-.6 0-1-.7-1-1.5 0-2 .6-1.9 4.2.6zm-42.9-.4c-.7.2-2.1.2-3 0-1-.3-.4-.5 1.2-.5 1.7 0 2.4.2 1.8.5zm11 0c-3.4.4-3.2.2-4.6 9.3-.3 1.4-.5-.3-.6-3.8l-.1-6.2 4.3.2c3.6.1 3.7.2 1 .5zm16.4 4.4c10.6 5.4 22.2 17.7 24.8 26.4.3 1.1-.4.2-1.6-2-3.5-6.3-3.5-6.3-13.4.8l-4 2.8 3.9-3.3c2.2-1.8 5.1-4.3 6.5-5.5l2.6-2.2-4.5-4.7c-4.8-4.9-11.7-10.4-13.2-10.4-.5 0-2 2.5-3.4 5.6-3.2 7.2-4.1 6.5-1.3-1 1.2-3.1 1.9-5.9 1.6-6.3-.4-.3-3-1.5-5.9-2.5-4.1-1.5-4.5-1.8-1.8-1.4 1.9.4 6.3 2 9.7 3.7zm-9.6-.1c1.1 0 1.1 7.2-.1 12.5-1.6 7.2-3.8 14-3.9 11.9-.1-1.1-.4-2.3-.7-2.7-1-1-3.4.4-3.4 2.1 0 .8-.2 1.3-.5 1-.3-.2.4-5.2 1.5-10.9 3.1-15.9 2.9-15.1 4.6-14.5.9.3 2 .6 2.5.6zm-30.2 11.5c0 .5-.8-.6-1.9-2.5-1.1-1.9-1.9-4-1.9-4.5 0-.6.8.6 1.9 2.5 1.1 1.9 1.9 3.9 1.9 4.5zm389.2-6.1c-1.1 1.3-6.1 2.9-6.1 1.9 0-.3 5.9-3.2 6.9-3.3.2 0-.2.6-.8 1.4zm-26.6 1.6c.3.5.1 1-.4 1-.6 0-1.1-.5-1.1-1 0-.6.2-1 .4-1 .3 0 .8.4 1.1 1zm26.5 7.1c0 1.9-.5 2.9-1.5 2.9-.8 0-1.5-.9-1.5-2 0-1.3-.9-2.2-2.5-2.6-1.4-.3-2.2-1-1.9-1.5.3-.6 1.4-.7 2.5-.4 1.1.4 1.9.2 1.9-.6 0-.9.4-.8 1.5.1.8.7 1.5 2.5 1.5 4.1zm-26-2.1c0 .5-.7 1-1.5 1s-1.5-.5-1.5-1c0-.6.7-1 1.5-1s1.5.4 1.5 1zm-365.3 5c.5 0 1.8 1.8 2.9 4 1 2.2 2.2 4 2.6 4 .6 0 3.8 5.7 3.8 6.8 0 .3-1.3-1.3-2.9-3.4-1.5-2.1-3.7-4.7-4.8-5.7-1.9-1.6-2.1-1.6-2.7-.2-.3.9-.4 2.1 0 2.6 1.5 2.4-.8.4-3.7-3.2-2.8-3.6-3.1-4.3-1.7-5.3.8-.6 1.3-1.8 1-2.6-.3-1 .4-.7 2 .7 1.3 1.3 2.9 2.3 3.5 2.3zm7.3-.6c0 .3-.4.8-1 1.1-.5.3-1 .1-1-.4 0-.6.5-1.1 1-1.1.6 0 1 .2 1 .4zm386 4.7c1.2.7 1.1.8-.5.9-3.1 0-6.5-1.1-6.5-2.1s4.5-.2 7 1.2zm-328.9 11.2c-.5.7-2.6 2-4.5 2.9-10.7 5.3-10.9 5.3-11.3 4-.4-1-.8-1-1.9-.1-1.1.9-1.4.8-1.4-.5 0-.9.6-1.6 1.3-1.6.9 0 .9-.2-.1-.9-1-.6-.3-1.3 2.5-2.5 2.1-1 6.1-3 8.8-4.6l5-2.9 1.3 2.5c.9 1.7 1 2.9.3 3.7zm6.8 6.7c.1.3-1.6.6-3.7.7-3.6.2-3.6.1-.9-.9 1.5-.5 2.7-1.7 2.8-2.6 0-1.4.2-1.3.9.3.5 1.1.9 2.2.9 2.5zm-52.4-.1c.7 1.2-1.2 2.4-2.5 1.6-1.1-.7-.4-2.5 1-2.5.5 0 1.1.4 1.5.9zm53.3 16.1c-.2 5.2-.7 10-1.1 10.6-.5.9-1.7.7-4.4-.7-2.1-1-4.7-1.9-6-1.9-1.2 0-2.5-.5-2.8-1-.9-1.4.5-1.3 5.5.5s7.9 2 6.4.5c-.6-.6-.7-4.2-.2-9.6.4-4.8.5-9.1.2-9.5-.3-.5-.2-1.4.2-2.1 1.5-2.4 2.6 3.9 2.2 13.2zM683 237.1c0 .6-.4.7-1 .4-.5-.3-1-1.1-1-1.6 0-.6.5-.7 1-.4.6.3 1 1.1 1 1.6zm-351 3.4c0 .8-.7 1.5-1.5 1.5s-1.5-.7-1.5-1.5.7-1.5 1.5-1.5 1.5.7 1.5 1.5zm-8.6 1.1c2.4.9 1.9 2.4-.8 2.4-2.8 0-4.3-1.6-2.4-2.3.7-.3 1.4-.6 1.5-.6.1-.1.8.2 1.7.5zm-12.4 1.2c0 1.4-1.1 2.1-2.6 1.5-.8-.3-1.1-.9-.8-1.4.7-1.1 3.4-1.2 3.4-.1zm24.4 1.7c-.4.8-.1 1.5.4 1.5.6 0 1.3-.8 1.5-1.8.3-1 .5-.6.6 1.1.1 3.1 6.2 10.2 7.7 8.9.4-.4.2.1-.5 1.1-1.3 1.6-1.2 1.9.7 2.3 1.2.4 2 1.3 1.9 2.5-.2 2.3.1 2.3-4.7-.1-4.9-2.5-8.1-2.5-11.1-.1-2.3 1.9-2.3 2-1 9.2.7 4.1 1.4 8.3 1.4 9.4.1 1.1 1.1 2.1 2.2 2.3 3.2.6 4.1 1.9 6.5 8.5 1.3 3.4 2.6 6.6 3 7 1 1.1 11.7-7.5 15.2-12.2l2.9-4-6-4.3c-6.5-4.7-7.4-5.7-6.1-7.9.7-1 1.1-.8 1.8 1.1.9 2.4 9 9 11 9 .5 0 1.5-1.5 2.2-3.3.6-1.7 1.8-4.7 2.6-6.5.8-1.8 1.4-3.9 1.4-4.7 0-.8.7-1.5 1.6-1.5 1.8 0 1.4 1.8-2.1 9.7-3.1 6.8-9.4 15.3-14.8 19.7-4.8 3.9-13.1 8.6-15 8.5-.7 0-.2-.4 1.1-.9 2.8-1.2 2.8-2.5-.4-9.4-1.7-3.7-3.1-5.6-4.3-5.6-1.8 0-4.1-3.7-4.1-6.5 0-.8-.8-1.5-1.9-1.5-1.4 0-1.8.6-1.5 2.6.4 4.4-1.2 1.3-3.1-5.6-2-7.7-3.8-10-7.7-10-2.8 0-4.7 1.4-8.3 6.2-1.7 2.3-2.2 2.5-3.3 1.2-.8-.9-.9-1.4-.2-1.4.6 0 .8-.5.4-1.1-.4-.7-1.7 0-3.6 1.8-2.5 2.3-2.2 1.6 1.7-4.1 5.3-7.9 5.5-11.3.9-15.4-1.8-1.6-2.1-2.2-1-2.2.9 0 1.5-.3 1.5-.8-.5-2.9.3-3.2 2.8-1.3 2.3 1.9 2.8 2 4.8.7s2.2-1.2 3.2 1.5c1.1 2.9 4.9 4.6 7.8 3.5.8-.3 2.2-2 3.1-3.9 1.3-2.8 2-3.3 4.4-2.9 1.5.2 3.1-.1 3.4-.7 1-1.6 1.6-1.3 1 .4zm-50.4 9c-.7.8-2 1.5-2.8 1.5-1.3 0-1.2-.3.4-1.5 2.5-1.9 4-1.9 2.4 0zm71.5 4.4c0 1.9-.4 2.7-1.2 2.4-1.6-.6-1.7-2.5-.1-4.1.7-.7 1.2-1.2 1.3-1.2v2.9zm-6-.9c.3.5.1 1-.4 1-.6 0-1.1-.5-1.1-1 0-.6.2-1 .4-1 .3 0 .8.4 1.1 1zm-55.7 14.7c.2.8-.5 1.3-1.6 1.3-1 0-4 1.8-6.6 4.1-5.9 5.2-5.9 4.2.1-2.2 4.5-4.8 7.2-5.8 8.1-3.2zm84.2 7.4c-1.9 4.5-3 3.4-1.2-1.2.9-2.3 1.8-3.6 2-3 .2.7-.1 2.5-.8 4.2zm-76.8 9.7l-4 7.8 4.1 1.3c8.2 2.4 15.2 4 17.3 4.1 2 0 2.1-.5 2-8.7-.1-6.6.2-8.7 1.3-9.1 1.1-.3 1.2 0 .6 1.4-1 2.5-.6 14.6.6 15.8.5.6 3.1.6 6.8 0 3.3-.5 5.8-.7 5.5-.2-.4.6-3.8 1.3-12.9 2.3-11.2 1.3-27.3-4.7-37.1-13.8-7.4-7-6.4-8.6 1.3-2.2 3.2 2.7 6.5 5.5 7.4 6.2 1.5 1.2 2 .8 4.4-3.4 1.5-2.6 2.9-6.4 3-8.3.2-1.9.3-3.7.4-4 .1-.2.8.3 1.8 1.2 1.5 1.6 1.3 2.2-2.5 9.6z"/><path d="M649.7 187.6c-1.4 1.4-.6 3.1 1.9 4.3 3.7 1.6 4.3.5 1.3-2.5-1.4-1.3-2.8-2.1-3.2-1.8zM666.3 217.4c.4 1 .7 2.4.7 3.2 0 .8.5 1.4 1.1 1.4 1.5 0 .6-5.3-1-5.8-1-.3-1.2 0-.8 1.2zM661.5 224.2c-.4 1.8-.9 4.2-.9 5.4-.1 1.1-1.2 3.7-2.3 5.7l-2.2 3.6 3.9 5c4.5 5.6 6 6.8 6 4.8 0-2.2 3.6-.9 5.5 1.9 3 4.6 4.4 2 2.9-5.4-.4-1.8-1.4-3.2-2.5-3.5-1-.3-1.9-1.3-1.9-2.4-.1-2.8-3.9-10.5-4.9-9.9-.5.4-1.2.2-1.5-.3-.4-.5-.2-1.2.4-1.6 1.4-.9 1.2-4.1-.4-5.4-1.1-.9-1.5-.5-2.1 2.1zm5.6 16.1c-.8.8-1.1.7-1.1-.4 0-2 1.3-3.4 1.8-1.9.3.7-.1 1.7-.7 2.3zM669 255c1.4.9 9.9 1.5 8.9.6-.2-.2-2.6-.6-5.4-1-3.4-.4-4.5-.3-3.5.4zM326.8 251.1c-3.9 2.2-.9 8.6 3.5 7.5 2.1-.5 2.7-1.2 2.7-3.4 0-4.5-2.6-6.2-6.2-4.1zm2.4 3.4c0 .5-.5 1.1-1.1 1.3-.6.2-1.1-.4-1.1-1.3s.5-1.5 1.1-1.3c.6.2 1.1.8 1.1 1.3zM313.6 253.6c-2.2 2.1-2 2.7.3 1.4 1.3-.7 2.2-.7 2.6 0 .9 1.5-.5 3.2-2.2 2.6-1.9-.8-1.2 1.4.9 2.8 2 1.2 4.8-.8 4.8-3.5 0-1.8-2.5-4.9-4-4.9-.5 0-1.6.7-2.4 1.6zM339.3 253.5c0 .8.4 1.2.9.9.4-.3.8-.9.8-1.5 0-.5-.4-.9-.8-.9-.5 0-.9.7-.9 1.5zM245 158.9c-13.8 6.3-37 18-37 18.6 0 .8 3.9-1 25.8-11.8 19.2-9.4 23.5-11.7 22.1-11.7-.2 0-5.1 2.2-10.9 4.9zM584 157c0 .5.5 1 1 1 .6 0 1-.5 1-1 0-.6-.4-1-1-1-.5 0-1 .4-1 1zM264 169.6c-18.8 1.7-36.6 7.2-64 19.9-7.4 3.4-14.6 6.6-16 7-4.1 1.2-18.9 9.9-19.5 11.4-.8 2.1 2.3 5 6.9 6.2 5.7 1.6 12.7.8 48.2-5.1 22.3-3.7 32.4-5.8 36.5-7.6 4.2-1.9 8.5-5.4 17-13.9 11.8-11.7 14-14.8 12.2-16.6-1.2-1.2-14-1.9-21.3-1.3zm14.9 7.1c-1.8 2.4-7.2 7.3-7.6 6.9-.8-.8 1.1-3.3 4.5-5.8 4.4-3.2 4.8-3.3 3.1-1.1zm-15.5 15c-6 5.2-13.7 9.3-17.8 9.3-2.9 0-2.9-.1 2-3.1 2.7-1.7 6.8-4.7 9.1-6.6 2.4-1.9 4.7-3.2 5.2-2.9.5.3 1.4-.1 2.1-.9.6-.7 1.9-1.1 2.7-.8 1.3.5.6 1.6-3.3 5zm-42.9.3c1.6 3.1 2 7 .7 7-.4 0-1.5-2.3-2.3-5-1.7-5.5-.8-6.7 1.6-2zM424.3 184.7c-2.8.5-2.9 1.1-.1 3.4 2.3 2.1 8.3 2.6 9.3.8.4-.5-.1-1.9-1.1-3-1.7-1.8-3.4-2.1-8.1-1.2zM413.1 187c-1.9.3-3.6 1-3.8 1.7-.7 2 4.2 4.5 7.3 3.7 4.2-1 4.5-1.3 3.2-3.4-1.6-2.5-2.5-2.7-6.7-2zM397.8 189.7c-3.3.5-4.2 2.7-2 4.5 1.5 1.2 1.6 1.1.3-.5-1.6-2.1.1-2.3 1.9-.2.7.9 2.9 1.5 5.1 1.5 3.1 0 3.9-.4 3.9-1.8 0-3.7-2.2-4.6-9.2-3.5zM81 191.6c-1.9.3-10 .8-18 1.2-9.2.4 6.3.7 42.5.7 33 .1 50.7-.2 42-.6-22.6-1-62.5-1.8-66.5-1.3zM289.3 194.7c.9.2 2.5.2 3.5 0 .9-.3.1-.5-1.8-.5-1.9 0-2.7.2-1.7.5zM280.8 195.7c.6.2 1.8.2 2.5 0 .6-.3.1-.5-1.3-.5-1.4 0-1.9.2-1.2.5zM416.5 205c.3.5 1 1 1.6 1 .5 0 .9-.5.9-1 0-.6-.7-1-1.6-1-.8 0-1.2.4-.9 1zM46 220.1c-15.6 1.2-17.6 1.6-19.8 4.4-2.6 3.3-3.6 12.1-2.2 18.8 1.5 7.3 3.6 7.1 3.3-.2-.2-4.2 0-5 .6-3.1.5 1.4.9 3.6 1 5 .2 5 2.2 10 5.3 13 13.8 13.8 57.6 19 96.3 11.4 17.3-3.4 22-8.5 21.2-22.9-.8-13.6-5.1-19.8-15.2-21.9-5-1-31.3-3.6-43.5-4.2-10.5-.6-11.6-.5-13.1 1.2-2.5 2.9-3.2 6.1-1.4 6.1.8 0 1.5-.4 1.5-.9 0-.4.4-.8.9-.8 1.1 0 .2 4.8-1.1 5.6-1.3.8-4.6-2.9-5.4-6-.3-1.5-1.8-3.5-3.1-4.6-2.9-2.2-5.6-2.3-25.3-.9zm19.3 1.6c-2.3.2-6.4.2-9 0-2.6-.2-.7-.3 4.2-.3 5 0 7.1.1 4.8.3zm-20 1c-1.3.2-3.3.2-4.5 0-1.3-.2-.3-.4 2.2-.4s3.5.2 2.3.4zM530.8 238.7c.7.3 1.6.2 1.9-.1.4-.3-.2-.6-1.3-.5-1.1 0-1.4.3-.6.6zM524.8 239.7c.7.3 1.6.2 1.9-.1.4-.3-.2-.6-1.3-.5-1.1 0-1.4.3-.6.6zM518.8 240.7c.7.3 1.6.2 1.9-.1.4-.3-.2-.6-1.3-.5-1.1 0-1.4.3-.6.6zM505.3 242.7c.9.2 2.3.2 3 0 .6-.3-.1-.5-1.8-.5-1.6 0-2.2.2-1.2.5zM494.5 244l-4 .7 4 .1c2.2 0 5.1-.4 6.5-.8l2.5-.8H501c-1.4.1-4.3.4-6.5.8zM481.2 246c-1.8.4-3.6 1-3.9 1.4-1.1 1.1 3.2.5 6.2-.9 3.4-1.5 2.6-1.7-2.3-.5zM39 264.5c0 1.8 19.8 8.6 24.5 8.4 1.1 0-1.2-.8-5-1.8-3.9-1.1-9.8-3-13.3-4.4-3.4-1.4-6.2-2.4-6.2-2.2z"/><path d="M69.5 274c6 1.1 18.3 2 16 1.1-1.1-.5-6-1.1-11-1.4-5.4-.3-7.4-.2-5 .3zM111.8 273.7c.7.3 1.6.2 1.9-.1.4-.3-.2-.6-1.3-.5-1.1 0-1.4.3-.6.6zM116.8 273.7c.7.3 1.6.2 1.9-.1.4-.3-.2-.6-1.3-.5-1.1 0-1.4.3-.6.6zM93.5 275c-.3.5.3 1 1.5 1s1.8-.5 1.5-1c-.3-.6-1-1-1.5-1s-1.2.4-1.5 1zM189.5 294c-1.2.5.4.6 4 .3 3.3-.3 6.2-.7 6.4-.9.9-.8-8.5-.2-10.4.6z"/></svg>