<svg width="64" height="64" viewBox="0 0 64 64" fill="none" xmlns="http://www.w3.org/2000/svg"><g clip-path="url(#a)"><path d="M58.552 19.8l-13.907-2.464-6.884-12.663a6.544 6.544 0 0 0-2.677-2.653 6.573 6.573 0 0 0-8.883 2.704l-6.64 12.464-2.493.463a1.25 1.25 0 0 0 .456 2.458l2.31-.429L21.52 22a16.33 16.33 0 0 0-4.732 6.439l-13.6-4.42c.16-.24.348-.465.561-.67a4.042 4.042 0 0 1 2.256-1.099l.458-.085a1.25 1.25 0 1 0-.458-2.458l-.437.081a6.529 6.529 0 0 0-3.552 1.759A6.528 6.528 0 0 0 0 26.156a6.53 6.53 0 0 0 1.836 4.685l9.808 10.173-1.82 13.877a6.52 6.52 0 0 0 .54 4.16 6.591 6.591 0 0 0 8.8 3.037l12.69-6.178 13.02 6.203a6.553 6.553 0 0 0 3.732.569 6.582 6.582 0 0 0 5.611-7.415l-1.955-13.994 9.677-10.207a6.525 6.525 0 0 0 1.961-3.65c.624-3.576-1.777-6.993-5.35-7.616zm2.084 3.976l-13.797 4.483a16.325 16.325 0 0 0-4.27-5.927l1.817-2.503 13.733 2.433a4.067 4.067 0 0 1 2.517 1.514zM49.812 41.797l1.93 13.814a4.057 4.057 0 0 1-.657 2.83l-8.508-11.71a16.329 16.329 0 0 0 4.255-5.902l2.98.968zM35.565 5.867l6.794 12.499-1.789 2.462a16.143 16.143 0 0 0-7.47-2.495V3.9a4.068 4.068 0 0 1 2.465 1.967zM21.852 18.206L28.407 5.9a4.05 4.05 0 0 1 2.192-1.903v14.336a16.134 16.134 0 0 0-7.035 2.229l-1.712-2.357zm9.998 2.58c7.582 0 13.75 6.168 13.75 13.75s-6.168 13.75-13.75 13.75c-7.581 0-13.75-6.168-13.75-13.75s6.169-13.75 13.75-13.75zm-18.784 37.9a4.078 4.078 0 0 1-.783-3.336l.015-.09L14.1 41.526l2.695-.876a16.33 16.33 0 0 0 4.715 6.413l-8.444 11.622zM3.637 29.106a4.042 4.042 0 0 1-1.134-2.681l13.526 4.395a16.237 16.237 0 0 0-.429 3.714c0 1.284.15 2.534.434 3.733l-2.714.882-9.683-10.043zM18.07 59.84a4.067 4.067 0 0 1-2.932.246l8.416-11.584a16.136 16.136 0 0 0 7.045 2.235v3.004L18.07 59.84zm30.195.365a4.058 4.058 0 0 1-2.314-.349l-12.852-6.122v-2.996a16.141 16.141 0 0 0 7.481-2.503l8.54 11.755a4.07 4.07 0 0 1-.855.215zm13.173-33.22a4.046 4.046 0 0 1-1.233 2.281 1.26 1.26 0 0 0-.054.054l-9.574 10.097-2.956-.96c.312-1.257.48-2.57.48-3.922 0-1.345-.166-2.652-.476-3.903l13.87-4.507c.012.283-.006.571-.057.86z" fill="#FF2E63"/><path d="M31.85 45.785c6.204 0 11.25-5.047 11.25-11.25s-5.046-11.25-11.25-11.25c-6.203 0-11.25 5.047-11.25 11.25s5.047 11.25 11.25 11.25zm0-20c4.825 0 8.75 3.925 8.75 8.75s-3.925 8.75-8.75 8.75-8.75-3.925-8.75-8.75 3.925-8.75 8.75-8.75z" fill="#346CD9"/><path d="M30.464 38.285a1.25 1.25 0 0 0 0 2.5h2.772a1.25 1.25 0 0 0 0-2.5H33.1v-8.75a1.25 1.25 0 0 0-1.875-1.083l-1.386.8a1.25 1.25 0 0 0 .761 2.326v6.707h-.136z" fill="#346CD9"/><path d="M11.765 21.158a1.25 1.25 0 0 0 0-2.5 1.25 1.25 0 1 0 0 2.5z" fill="#FF2E63"/></g><defs><clipPath id="a"><path fill="#fff" d="M0 0h64v64H0z"/></clipPath></defs></svg>