<svg width="153" height="20" viewBox="0 0 153 20" fill="none" xmlns="http://www.w3.org/2000/svg"><path d="M11.45 20H1.58c-.42 0-.63-.21-.63-.63V1.34c0-.42.21-.63.63-.63h2.55c.42 0 .63.21.63.63v15c0 .22.12.33.36.33h6.33c.4 0 .6.22.6.66v2.04c0 .42-.2.63-.6.63zm9.727-3.3h2.13c.64 0 1.09-.13 1.35-.39.28-.28.42-.74.42-1.38V5.78c0-.64-.14-1.09-.42-1.35-.26-.28-.71-.42-1.35-.42h-2.13c-.64 0-1.09.14-1.35.42-.26.26-.39.71-.39 1.35v9.15c0 .64.13 1.1.39 1.38.26.26.71.39 1.35.39zm2.76 3.3h-3.36c-1.58 0-2.8-.42-3.66-1.26-.86-.84-1.29-2.05-1.29-3.63V5.6c0-1.58.43-2.79 1.29-3.63.86-.84 2.08-1.26 3.66-1.26h3.36c1.58 0 2.8.42 3.66 1.26.86.84 1.29 2.05 1.29 3.63v9.51c0 1.58-.43 2.79-1.29 3.63-.86.84-2.08 1.26-3.66 1.26zm17.872 0h-3.18c-1.58 0-2.8-.42-3.66-1.26-.86-.84-1.29-2.05-1.29-3.63V5.6c0-1.58.43-2.79 1.29-3.63.86-.84 2.08-1.26 3.66-1.26h3.18c1.56 0 2.77.43 3.63 1.29.86.84 1.29 2.04 1.29 3.6v.9c0 .44-.21.66-.63.66h-2.55c-.42 0-.63-.22-.63-.66v-.72c0-.64-.13-1.09-.39-1.35-.26-.28-.71-.42-1.35-.42h-1.95c-.62 0-1.07.14-1.35.42-.26.26-.39.71-.39 1.35v9.15c0 .64.13 1.1.39 1.38.28.26.73.39 1.35.39h1.95c.64 0 1.09-.13 1.35-.39.26-.28.39-.74.39-1.38v-1.89c0-.22-.11-.33-.33-.33h-1.8c-.42 0-.63-.21-.63-.63v-2.04c0-.42.21-.63.63-.63h5.25c.46 0 .69.23.69.69v5.01c0 1.56-.43 2.77-1.29 3.63-.86.84-2.07 1.26-3.63 1.26zm15.268-3.3h2.13c.64 0 1.09-.13 1.35-.39.28-.28.42-.74.42-1.38V5.78c0-.64-.14-1.09-.42-1.35-.26-.28-.71-.42-1.35-.42h-2.13c-.64 0-1.09.14-1.35.42-.26.26-.39.71-.39 1.35v9.15c0 .64.13 1.1.39 1.38.26.26.71.39 1.35.39zm2.76 3.3h-3.36c-1.58 0-2.8-.42-3.66-1.26-.86-.84-1.29-2.05-1.29-3.63V5.6c0-1.58.43-2.79 1.29-3.63.86-.84 2.08-1.26 3.66-1.26h3.36c1.58 0 2.8.42 3.66 1.26.86.84 1.29 2.05 1.29 3.63v9.51c0 1.58-.43 2.79-1.29 3.63-.86.84-2.08 1.26-3.66 1.26zm15.293-3.3h2.13c.64 0 1.09-.13 1.35-.39.28-.28.42-.74.42-1.38V5.78c0-.64-.14-1.09-.42-1.35-.26-.28-.71-.42-1.35-.42h-2.13c-.64 0-1.09.14-1.35.42-.26.26-.39.71-.39 1.35v9.15c0 .64.13 1.1.39 1.38.26.26.71.39 1.35.39zm2.76 3.3h-3.36c-1.58 0-2.8-.42-3.66-1.26-.86-.84-1.29-2.05-1.29-3.63V5.6c0-1.58.43-2.79 1.29-3.63.86-.84 2.08-1.26 3.66-1.26h3.36c1.58 0 2.8.42 3.66 1.26.86.84 1.29 2.05 1.29 3.63v9.51c0 1.58-.43 2.79-1.29 3.63-.86.84-2.08 1.26-3.66 1.26zm12.052 0h-2.88c-.36 0-.48-.21-.36-.63l4.74-18.03c.14-.42.44-.63.9-.63h3.99c.5 0 .8.21.9.63l4.74 18.03c.12.42 0 .63-.36.63h-2.88c-.22 0-.37-.04-.45-.12-.08-.1-.14-.27-.18-.51l-.84-3.3h-5.85l-.84 3.3c-.04.24-.11.41-.21.51-.08.08-.22.12-.42.12zm4.35-15.66l-2.16 8.67h4.44l-2.16-8.67h-.12zm21.71-3.63h2.52c.44 0 .66.2.66.6v13.8c0 1.56-.44 2.77-1.32 3.63-.86.84-2.07 1.26-3.63 1.26h-3.3c-1.58 0-2.8-.42-3.66-1.26-.86-.84-1.29-2.05-1.29-3.63V1.34c0-.42.21-.63.63-.63h2.55c.42 0 .63.21.63.63v13.59c0 .64.13 1.1.39 1.38.28.26.73.39 1.35.39h2.07c.64 0 1.09-.13 1.35-.39.28-.28.42-.74.42-1.38V1.34c0-.42.21-.63.63-.63zM130.389 20h-2.52c-.44 0-.66-.21-.66-.63V4.34c0-.22-.11-.33-.33-.33h-3.42c-.42 0-.63-.21-.63-.63V1.34c0-.42.21-.63.63-.63h11.34c.42 0 .63.21.63.63v2.04c0 .42-.21.63-.63.63h-3.42c-.24 0-.36.11-.36.33v15.03c0 .42-.21.63-.63.63zm14.081-3.3h2.13c.64 0 1.09-.13 1.35-.39.28-.28.42-.74.42-1.38V5.78c0-.64-.14-1.09-.42-1.35-.26-.28-.71-.42-1.35-.42h-2.13c-.64 0-1.09.14-1.35.42-.26.26-.39.71-.39 1.35v9.15c0 .64.13 1.1.39 1.38.26.26.71.39 1.35.39zm2.76 3.3h-3.36c-1.58 0-2.8-.42-3.66-1.26-.86-.84-1.29-2.05-1.29-3.63V5.6c0-1.58.43-2.79 1.29-3.63.86-.84 2.08-1.26 3.66-1.26h3.36c1.58 0 2.8.42 3.66 1.26.86.84 1.29 2.05 1.29 3.63v9.51c0 1.58-.43 2.79-1.29 3.63-.86.84-2.08 1.26-3.66 1.26z" fill="#fff"/></svg>